<svg width="109" height="40" viewBox="0 0 109 40" fill="none" xmlns="http://www.w3.org/2000/svg">
<path d="M22.0108 36.7223L23.4002 35.3442V4.84294L22.0037 3.45808H4.66612L3.27713 4.83602V35.3442L4.66612 36.7223H22.0108ZM10.8234 35.0589H15.8539V33.3957H10.8234V35.0589ZM3.27713 40.0486L-0.0769101 36.8118C-0.0769101 25.6396 -0.0785451 14.6304 -0.0769101 3.45808L3.27713 0.131592H23.3857L26.7539 3.45808C26.7518 14.6304 26.7539 25.5498 26.7539 36.7223L23.4002 40.0486H3.27713Z" fill="#19B423"/>
<path d="M70.8396 10.3227C68.4762 9.62834 64.0137 9.31159 62.989 13.439V10.3345H58.2715V28.8501H62.989V18.7268C62.989 12.8847 68.0836 13.6708 70.8396 14.3061V10.3227ZM44.3552 9.84943C46.4793 9.84943 48.5657 10.311 49.9146 11.9422V10.3345H54.6324V28.8501H49.9146V26.7293C48.7385 28.906 46.5475 29.2975 44.4597 29.2975C38.9517 29.2975 35.1379 25.1078 35.1379 19.549C35.1379 14.2317 38.9115 9.84943 44.3552 9.84943ZM45.3382 25.4954C48.7726 25.4954 50.4833 22.5528 50.4833 19.5303C50.4833 16.4944 48.7629 13.651 45.3382 13.651C37.8483 13.651 37.8674 25.4954 45.3382 25.4954ZM96.3582 15.7234C96.3351 14.3814 98.2432 13.7446 100.136 13.7446C102.912 13.7446 103.969 14.633 104.109 15.7369L108.436 15.7268C107.99 11.1949 103.671 9.91905 100.136 9.95191C94.5207 10.0047 92.1299 13.0782 92.2883 16.4414C92.462 20.1387 95.5683 21.2058 99.7902 21.4342C102.465 21.5789 104.347 21.6976 104.35 23.0883C104.354 25.1249 102.195 25.5152 100.136 25.5152C98.5028 25.5152 97.0357 24.8899 96.5414 23.3996H92.1501C92.5018 27.4129 95.7006 29.2967 100.007 29.2967C104.628 29.2967 108.824 27.8566 108.92 23.3326C109.03 18.1801 104.559 17.8601 99.7902 17.6382C98.1604 17.5624 96.3837 17.233 96.3582 15.7234ZM70.8394 19.5873C70.8394 32.8073 90.3973 32.2579 90.3973 19.5873C90.3973 6.7411 70.8394 6.72024 70.8394 19.5873ZM85.8268 19.5992C85.8268 22.6056 84.0155 25.5152 80.606 25.5152C77.1889 25.5152 75.3729 22.615 75.3729 19.5992C75.3729 16.5472 77.1307 13.6708 80.606 13.6708C84.072 13.6708 85.8268 16.5592 85.8268 19.5992Z" fill="black"/>
</svg>
